<svg width="38" height="38" viewBox="0 0 38 38" fill="none" xmlns="http://www.w3.org/2000/svg">
<path fill-rule="evenodd" clip-rule="evenodd" d="M8.08807 8.08547C8.40031 7.77302 8.82373 7.5975 9.26522 7.5975C9.70672 7.5975 10.1301 7.77302 10.4424 8.08547L17.5902 15.2405L24.738 8.08547C24.8916 7.92629 25.0753 7.79932 25.2784 7.71197C25.4816 7.62462 25.7001 7.57865 25.9211 7.57672C26.1422 7.5748 26.3614 7.61697 26.5661 7.70077C26.7707 7.78457 26.9566 7.90833 27.1129 8.06482C27.2693 8.2213 27.3929 8.40739 27.4766 8.61222C27.5603 8.81704 27.6024 9.03651 27.6005 9.25781C27.5986 9.47911 27.5527 9.69781 27.4654 9.90115C27.3781 10.1045 27.2513 10.2884 27.0923 10.4421L19.9445 17.5971L27.0923 24.7521C27.3956 25.0665 27.5634 25.4875 27.5596 25.9245C27.5558 26.3615 27.3807 26.7795 27.072 27.0885C26.7633 27.3975 26.3457 27.5728 25.9091 27.5766C25.4726 27.5804 25.052 27.4124 24.738 27.1088L17.5902 19.9538L10.4424 27.1088C10.1283 27.4124 9.70777 27.5804 9.27121 27.5766C8.83466 27.5728 8.41706 27.3975 8.10835 27.0885C7.79965 26.7795 7.62455 26.3615 7.62075 25.9245C7.61696 25.4875 7.78478 25.0665 8.08807 24.7521L15.2359 17.5971L8.08807 10.4421C7.77594 10.1296 7.60059 9.70575 7.60059 9.26381C7.60059 8.82187 7.77594 8.39802 8.08807 8.08547Z" fill="white"/>
</svg>
